<?xml version="1.0" standalone="no"?>
<!DOCTYPE svg PUBLIC "-//W3C//DTD SVG 20010904//EN"
 "http://www.w3.org/TR/2001/REC-SVG-20010904/DTD/svg10.dtd">
<svg version="1.0" xmlns="http://www.w3.org/2000/svg"
 width="131.000000pt" height="147.000000pt" viewBox="0 0 131.000000 147.000000"
 preserveAspectRatio="xMidYMid meet">
<metadata>
Created by potrace 1.15, written by Peter Selinger 2001-2017
</metadata>
<g transform="translate(0.000000,147.000000) scale(0.100000,-0.100000)"
fill="#000000" stroke="none">
<path d="M332 1089 c-163 -32 -278 -160 -290 -319 -4 -54 12 -170 22 -170 2 0
18 7 36 16 28 15 42 15 97 5 35 -6 68 -9 72 -6 5 3 21 26 36 51 22 37 25 48
14 55 -8 5 -19 9 -25 9 -16 0 -62 52 -74 85 -17 44 -3 98 37 144 45 53 80 71
140 71 56 0 78 -11 70 -34 -5 -12 -16 -14 -51 -10 -53 8 -113 -21 -139 -66
-17 -28 -22 -85 -11 -115 6 -15 53 -45 73 -45 5 0 24 26 41 58 63 110 159 202
213 202 33 0 1 27 -56 48 -65 24 -149 33 -205 21z"/>
<path d="M577 962 c-27 -28 -103 -192 -89 -192 11 0 98 74 126 107 34 40 46
75 35 96 -14 25 -42 21 -72 -11z"/>
<path d="M733 977 c3 -8 40 -67 81 -131 l76 -117 -86 -129 c-47 -70 -83 -133
-80 -139 10 -16 132 -14 148 3 8 7 34 43 57 80 24 37 48 63 52 59 5 -5 30 -40
56 -78 l48 -70 69 -3 c38 -2 73 1 78 6 6 6 -24 60 -78 141 l-87 130 81 125
c44 68 78 127 74 130 -3 3 -36 6 -74 6 l-68 0 -47 -70 c-25 -39 -50 -69 -55
-68 -4 2 -27 32 -51 68 l-42 65 -79 3 c-64 2 -77 0 -73 -11z"/>
<path d="M682 893 c-26 -51 -111 -129 -167 -154 -37 -16 -51 -30 -75 -77 -17
-31 -37 -67 -46 -79 l-16 -23 76 0 c75 0 77 1 120 40 24 22 48 40 55 40 41 0
-51 -129 -115 -160 -38 -19 -44 -19 -98 -5 -32 8 -66 20 -77 25 -14 8 -25 6
-44 -6 -13 -9 -44 -22 -67 -29 l-43 -13 59 -27 c238 -111 516 63 516 324 0 43
-26 137 -45 164 -13 18 -15 17 -33 -20z"/>
</g>
</svg>
